<svg xmlns="http://www.w3.org/2000/svg" width="20" height="20" viewBox="0 0 20 20" fill="none">
  <path d="M19 10.227c0-.678-.055-1.174-.173-1.688H10.2v3.059h5.05c-.101.834-.65 2.09-1.87 2.933l-.017.114 2.715 2.103.188.018C18.307 15.569 19 13.1 19 10.227Z" fill="#4285F4"/>
  <path d="M10.2 19.5c2.43 0 4.467-.78 5.956-2.134l-2.84-2.2c-.761.53-1.78.897-3.116.897-2.38 0-4.396-1.56-5.114-3.706l-.105.009-2.777 2.152-.036.102C3.687 17.418 6.702 19.5 10.2 19.5Z" fill="#34A853"/>
  <path d="M5.086 12.357c-.193-.604-.302-1.25-.302-1.921 0-.671.109-1.317.293-1.921l-.005-.129-2.812-2.18-.092.043C1.419 7.65 1 8.946 1 10.436c0 1.49.42 2.786 1.168 4.186l2.918-2.265Z" fill="#FBBC05"/>
  <path d="M10.2 5.04c1.69 0 2.83.708 3.48 1.302l2.539-2.42C14.659 2.198 12.63 1.373 10.2 1.373 6.702 1.373 3.687 3.455 2.168 6.25l2.9 2.265c.727-2.146 2.744-3.475 5.132-3.475Z" fill="#EB4335"/>
</svg>
